<svg width="80" height="80" viewBox="0 0 80 80" fill="none" xmlns="http://www.w3.org/2000/svg">
<g clip-path="url(#clip0_539_863)">
<path d="M70.455 26.4325C66.575 24.245 61.68 27.0975 60.8975 27.5925L44.1125 37.11C42.9102 36.1554 41.4108 35.6532 39.8761 35.6912C38.3414 35.7291 36.8687 36.3047 35.715 37.3175C34.5586 38.3269 33.7934 39.7105 33.553 41.2265C33.3127 42.7426 33.6125 44.2949 34.4 45.6125C36.015 48.335 39.3475 49.505 42.3175 48.4C45.2875 47.295 47.03 44.22 46.485 41.1075L63.335 31.5375C64.43 30.8475 66.995 29.805 68.18 30.47C69.04 30.965 69.535 32.58 69.5725 34.975H69.5475V55.9775C69.5475 57.9425 68.505 59.7525 66.8125 60.73L42.7375 74.6375C41.9037 75.1177 40.9584 75.3705 39.9962 75.3705C39.0341 75.3705 38.0888 75.1177 37.255 74.6375L13.18 60.73C12.3437 60.2504 11.6491 59.5582 11.1666 58.7236C10.684 57.889 10.4308 56.9416 10.4325 55.9775V28.1775C10.4325 26.2125 11.475 24.4025 13.18 23.425L34.965 10.86C35.9723 12.0081 37.3488 12.7684 38.857 13.0097C40.3651 13.2509 41.9102 12.9579 43.2253 12.1813C44.5405 11.4048 45.5431 10.1933 46.0602 8.7562C46.5773 7.31908 46.5764 5.7465 46.0575 4.31003C45.5347 2.87135 44.5248 1.66109 43.2029 0.889246C41.8811 0.117407 40.3307 -0.167295 38.8209 0.0845435C37.311 0.336382 35.937 1.10887 34.9372 2.26795C33.9374 3.42704 33.375 4.89957 33.3475 6.43003L10.8725 19.4125C9.32984 20.297 8.04799 21.573 7.15645 23.1116C6.26491 24.6502 5.79527 26.3968 5.79498 28.175V55.9625C5.79498 59.595 7.72248 62.9275 10.86 64.7375L34.9225 78.645C36.4624 79.5344 38.2092 80.0026 39.9875 80.0026C41.7657 80.0026 43.5126 79.5344 45.0525 78.645L69.1275 64.7375C70.664 63.8472 71.9403 62.5696 72.8291 61.0321C73.7178 59.4946 74.1879 57.7509 74.1925 55.975V35.7675H74.205C74.3225 31.0275 73.045 27.89 70.455 26.4325Z" fill="black"/>
</g>
<defs>
<clipPath id="clip0_539_863">
<rect width="80" height="80" fill="white"/>
</clipPath>
</defs>
</svg>
