<svg width="100" height="100" viewBox="0 0 100 100" fill="none" xmlns="http://www.w3.org/2000/svg">
<g clip-path="url(#clip0_556_868)">
<path d="M94.742 18.064C94.6629 17.3864 94.3256 16.7654 93.8003 16.3302C93.275 15.8949 92.6021 15.679 91.9216 15.7272C91.2411 15.7755 90.6054 16.0842 90.1468 16.5892C89.6881 17.0942 89.4418 17.7566 89.4591 18.4386C90.3159 30.7955 80.2263 37.1049 73.0536 40.0031L71.5884 35.9083C71.0949 34.5345 69.5507 33.0836 68.1517 32.6849L54.6572 29.0774C52.9972 28.6792 51.2604 28.737 49.6305 29.2446L2.33808 46.2889C1.23743 46.6876 0.33962 47.5063 -0.158759 48.5656C-0.657138 49.6249 -0.71548 50.8385 -0.321014 51.9407L10.7025 82.6743C11.5321 84.9661 13.7558 85.3213 16.0494 84.5013L63.343 67.4528C64.7042 66.9558 66.4971 65.5728 67.3245 64.3676L75.1611 52.2189C75.9873 51.0178 76.255 48.9156 75.7615 47.5418L74.8691 45.0468C84.5155 41.1006 95.7431 32.5443 94.742 18.064ZM65.499 52.6008C64.6279 52.914 63.7038 53.0524 62.7793 53.0082C61.8547 52.964 60.948 52.7381 60.1108 52.3434C59.2736 51.9487 58.5224 51.3928 57.9001 50.7077C57.2778 50.0225 56.7966 49.2215 56.4841 48.3503C55.8509 46.5872 55.9431 44.6449 56.7405 42.9498C57.538 41.2547 58.9754 39.9452 60.7373 39.3089C62.1181 38.8118 63.6196 38.7586 65.0321 39.1567C66.4446 39.5548 67.6974 40.3843 68.6154 41.5292C67.2768 41.9097 66.3757 42.1005 66.2105 42.1237C65.6184 42.231 65.0804 42.5362 64.6845 42.9894C64.2886 43.4425 64.0584 44.0167 64.0315 44.6178C64.0046 45.2189 64.1828 45.8113 64.5367 46.298C64.8906 46.7846 65.3993 47.1366 65.9794 47.2963C66.343 47.3952 66.738 47.4119 67.1338 47.3424C68.0598 47.1766 69.0646 46.955 70.1304 46.6592C69.9963 47.9852 69.4905 49.2464 68.6711 50.2976C67.8517 51.3488 66.7521 52.1472 65.499 52.6008Z" fill="black"/>
</g>
<defs>
<clipPath id="clip0_556_868">
<rect width="100" height="100" fill="white"/>
</clipPath>
</defs>
</svg>
