<svg width="70" height="70" viewBox="0 0 70 70" fill="none" xmlns="http://www.w3.org/2000/svg">
<path d="M40.8333 53.4187C37.6341 51.8949 34.8839 49.5687 32.8504 46.6666H8.75001V11.6666H61.25V18.27C63.6133 19.9274 65.6009 22.0641 67.0833 24.5408V11.6666C67.0787 10.121 66.4627 8.63992 65.3697 7.54696C64.2767 6.45399 62.7957 5.83793 61.25 5.83331H8.75001C7.20433 5.83793 5.72328 6.45399 4.63032 7.54696C3.53735 8.63992 2.92129 10.121 2.91667 11.6666V46.6666C2.92129 48.2123 3.53735 49.6934 4.63032 50.7863C5.72328 51.8793 7.20433 52.4954 8.75001 52.5H29.1667V58.3333H23.3333V64.1666H46.6667V58.3333H40.8333V53.4187Z" fill="black"/>
<path d="M49.5833 17.5C46.1222 17.5 42.7387 18.5264 39.8609 20.4493C36.983 22.3722 34.74 25.1053 33.4154 28.303C32.0909 31.5007 31.7444 35.0194 32.4196 38.4141C33.0948 41.8087 34.7615 44.9269 37.209 47.3744C39.6564 49.8218 42.7746 51.4885 46.1693 52.1637C49.5639 52.839 53.0826 52.4924 56.2803 51.1679C59.478 49.8434 62.2111 47.6003 64.134 44.7225C66.057 41.8446 67.0833 38.4612 67.0833 35C67.0841 32.7017 66.632 30.4257 65.7528 28.3021C64.8736 26.1786 63.5846 24.2491 61.9594 22.6239C60.3342 20.9987 58.4047 19.7097 56.2812 18.8305C54.1577 17.9514 51.8817 17.4992 49.5833 17.5ZM49.5833 46.6667C47.2759 46.6667 45.0203 45.9824 43.1017 44.7005C41.1831 43.4185 39.6878 41.5964 38.8047 39.4646C37.9217 37.3328 37.6907 34.9871 38.1408 32.7239C38.591 30.4608 39.7021 28.382 41.3338 26.7504C42.9654 25.1188 45.0442 24.0077 47.3073 23.5575C49.5704 23.1073 51.9162 23.3384 54.048 24.2214C56.1798 25.1044 58.0019 26.5998 59.2838 28.5183C60.5658 30.4369 61.25 32.6926 61.25 35C61.2461 38.093 60.0157 41.0582 57.8286 43.2453C55.6416 45.4324 52.6763 46.6628 49.5833 46.6667Z" fill="black"/>
<path d="M49.5833 37.9166C51.1942 37.9166 52.5 36.6108 52.5 35C52.5 33.3891 51.1942 32.0833 49.5833 32.0833C47.9725 32.0833 46.6667 33.3891 46.6667 35C46.6667 36.6108 47.9725 37.9166 49.5833 37.9166Z" fill="black"/>
</svg>
