<svg width="100" height="80" viewBox="0 0 100 80" fill="none" xmlns="http://www.w3.org/2000/svg">
<path d="M79.0781 19.8594C76.2703 16.7078 69.475 10.2266 59.9062 8.75003C56.3906 8.22597 52.8141 9.31347 49.9984 11.5953C47.1875 9.44847 43.6094 8.3469 40.0781 8.8844C27.625 10.8078 19.7969 21.2813 19.4688 21.7344C18.2431 23.4047 18.6045 25.7532 20.2695 26.9797C20.9117 27.4533 21.6888 27.7084 22.4867 27.7074C23.6439 27.7074 24.782 27.18 25.5148 26.1789C25.5783 26.091 31.7945 17.7555 41.218 16.2992C42.3831 16.1491 43.5586 16.4039 44.5867 16.9997L35.5 26.2813C33.5625 28.2032 32.3594 30.6407 32.3594 33.5157C32.3594 36.25 33.4237 38.8188 35.3531 40.7485C37.4219 42.6875 39.9844 43.6094 42.7188 43.6094C45.4531 43.6094 48.0219 42.5449 49.9547 40.611L51.7281 38.8375L71.1344 54.6031C71.4956 54.8961 71.5494 55.4236 71.2125 55.8485L66.8859 61.4344C66.5978 61.786 66.0656 61.8397 65.7678 61.6005L62.2959 58.6802L58.2038 63.0161C57.8375 63.4653 57.3687 63.5728 57.1247 63.5972C56.8659 63.6216 56.4119 63.6167 56.0603 63.3286L50.9963 59.0067L48.5469 61.2969L48.1075 61.756C47.1944 62.8742 45.9059 63.5778 44.47 63.7247C42.9905 63.8517 41.6184 63.4513 40.6419 62.665L26.6094 49.9688H15V20.0469H0V59.9844L10 59.9907C11.8344 59.9907 13.3703 58.9428 14.2406 57.4688H23.7156L35.7562 68.3531C38.0781 70.25 40.9219 71.25 43.875 71.25C44.3242 71.25 44.7783 71.2305 45.2275 71.1816C47.3556 70.9619 49.3541 70.2342 51.0822 69.0722L51.2238 69.1992C53.1034 70.7424 55.4863 71.4508 57.8941 71.1961C59.955 70.9813 61.8441 70.0974 63.1925 68.7977C66.4878 70.0771 70.3941 69.1639 72.7628 66.2242L77.0894 60.6383C79.9753 57.0727 79.4284 51.8133 75.8638 48.918L57.0669 33.643L58.3764 32.3333C59.8413 30.8683 59.8413 28.4942 58.3764 27.0302C56.9116 25.5652 54.5389 25.5652 53.0733 27.0302L44.6562 35.4375C43.625 36.4844 41.8281 36.4844 40.7969 35.4375C40.2794 34.9247 39.9961 34.2411 39.9961 33.5141C39.9961 32.7816 40.2792 32.0978 40.8213 31.5563L54.2447 17.8625C55.4653 16.6367 57.14 16.0266 58.7666 16.2953C68.1025 17.736 74.4228 26.0969 74.4853 26.1844C74.9678 26.8336 75.6203 27.2697 76.3353 27.4932H85V54.8525C85 57.6135 87.2391 59.8603 89.8594 59.8603L100 60V20.0157L79.0781 19.8594ZM7.5 55C6.13281 55 5 53.868 5 52.5016C5 51.1147 6.13281 50.0032 7.5 50.0032C8.86719 50.0032 10 51.125 10 52.5157C10 53.875 8.86719 55 7.5 55ZM92.5 55C91.1328 55 90 53.868 90 52.5016C90 51.1147 91.1328 50.0032 92.5 50.0032C93.8672 50.0032 95 51.1152 95 52.5016C95 53.875 93.875 55 92.5 55Z" fill="#4326F8"/>
</svg>
