<svg width="100" height="100" viewBox="0 0 100 100" fill="none" xmlns="http://www.w3.org/2000/svg">
<path d="M20.8333 25.0001C15 25.0001 10.4167 20.4167 10.4167 14.5834C10.4167 8.75008 15 4.16675 20.8333 4.16675C26.6667 4.16675 31.25 8.75008 31.25 14.5834C31.25 20.4167 26.6667 25.0001 20.8333 25.0001Z" fill="#FFB74D"/>
<path d="M4.16666 45.8334V62.5001L10.4167 66.6667L12.5 95.8334H29.1667L31.25 66.6667L37.5 62.5001V45.8334C37.5 36.6667 30 29.1667 20.8333 29.1667C11.6667 29.1667 4.16666 36.6667 4.16666 45.8334Z" fill="#607D8B"/>
<path d="M46.6667 84.1668C45.4167 89.3751 44.5834 91.6667 41.6667 91.6667C40.4167 91.6667 39.1667 90.6251 37.7084 89.3751C35.625 87.7084 33.125 85.4167 29.1667 85.4167V89.5834C31.4584 89.5834 33.125 91.0417 35 92.5001C36.875 93.9584 38.9584 95.8334 41.6667 95.8334C48.125 95.8334 49.5834 89.7917 50.8334 85.0001C52.0834 79.5834 52.9167 77.0834 56.25 77.0834V72.9167C49.375 72.9167 47.7084 79.3751 46.6667 84.1668Z" fill="#263238"/>
<path d="M30 83.3335H20.8333V91.6668H29.375L30 83.3335Z" fill="#263238"/>
<path d="M75 95.8334C86.5059 95.8334 95.8333 86.506 95.8333 75.0001C95.8333 63.4941 86.5059 54.1667 75 54.1667C63.4941 54.1667 54.1667 63.4941 54.1667 75.0001C54.1667 86.506 63.4941 95.8334 75 95.8334Z" fill="#4CAF50"/>
<path d="M72.9167 70.8333C73.125 71.2499 73.125 71.4583 73.5417 71.6666C73.75 71.8749 74.1667 72.0833 74.5833 72.4999C75 72.7083 75.625 72.9166 76.25 73.1249C77.2917 73.5416 78.125 73.9583 78.9583 74.3749C79.7917 74.7916 80.4167 75.2083 81.0417 75.8333C81.6667 76.4583 82.0833 77.0833 82.5 77.7083C82.9167 78.5416 82.9167 79.3749 82.9167 80.4166C82.9167 81.2499 82.7083 82.0833 82.5 82.9166C82.2917 83.7499 81.875 84.3749 81.25 84.7916C80.625 85.4166 80 85.8333 79.375 86.0416C78.5417 86.4583 77.7083 86.6666 76.875 86.6666V89.7916H74.375V86.6666C73.5417 86.6666 72.7083 86.4583 71.875 86.0416C71.0417 85.6249 70.4167 85.2083 69.7917 84.7916C69.1667 84.1666 68.75 83.5416 68.3333 82.4999C67.9167 81.6666 67.7083 80.6249 67.7083 79.3749H72.2917C72.2917 80.2082 72.2917 80.8333 72.5 81.2499C72.7083 81.6666 72.9167 82.0832 73.3333 82.4999C73.75 82.7082 73.9583 82.9166 74.375 83.1249C74.7917 83.3333 75.2083 83.3333 75.625 83.3333C76.0417 83.3333 76.4583 83.3333 76.875 83.1249C77.2917 82.9166 77.5 82.7082 77.7083 82.4999C77.9167 82.2916 78.125 81.8749 78.3333 81.6666C78.5417 81.2499 78.5417 81.0416 78.5417 80.6249C78.5417 80.2083 78.5417 79.7916 78.3333 79.3749C78.125 78.9582 78.125 78.7499 77.7083 78.5416C77.5 78.3333 77.0833 77.9166 76.6667 77.7083C76.25 77.4999 75.8333 77.2916 75.2083 77.0833C74.1667 76.6666 73.3333 76.2499 72.5 75.8333C71.6667 75.4166 71.0417 74.9999 70.4167 74.3749C69.7917 73.7499 69.375 73.1249 68.9583 72.4999C68.5417 71.6666 68.5417 70.8333 68.5417 69.7916C68.5417 68.9583 68.75 68.1249 68.9583 67.2916C69.1667 66.6666 69.5833 65.8333 70.2083 65.4166C70.8333 64.7916 71.4583 64.3749 72.0833 64.1666C72.9167 63.7499 73.75 63.5416 74.5833 63.5416V60.2083H77.0833V63.5416C77.9167 63.7499 78.75 63.9583 79.5833 64.3749C80.4167 64.7916 80.8333 65.2083 81.4583 65.8333C81.875 66.4583 82.2917 67.0832 82.7083 67.9166C82.9167 68.7499 83.125 69.7916 83.125 70.8333H78.5417C78.5417 69.5833 78.3333 68.7499 77.7083 68.1249C77.2917 67.4999 76.4583 67.2916 75.625 67.2916C75.2083 67.2916 74.7917 67.2916 74.375 67.4999C73.9583 67.7083 73.75 67.9166 73.5417 68.1249C73.125 68.1249 72.9167 68.3333 72.9167 68.7499C72.9167 69.1666 72.7083 69.3749 72.7083 69.7916C72.7083 70.2083 72.7083 70.6249 72.9167 70.8333Z" fill="white"/>
</svg>
