<svg width="85" height="85" viewBox="0 0 85 85" fill="none" xmlns="http://www.w3.org/2000/svg">
<path d="M21.4412 13.2176L56.5622 28.2679L42.5 34.2922L7.58094 19.3269C8.36719 18.5248 9.32875 17.8766 10.4231 17.4569L21.4412 13.2176ZM28.5494 10.4869L36.7838 7.32069C40.465 5.90547 44.5403 5.90547 48.2216 7.32069L74.5822 17.4569C75.6713 17.8819 76.6328 18.5194 77.4191 19.3269L63.3091 25.3726L28.5494 10.4869ZM79.6556 24.1507L45.1563 38.9354V78.5135C46.2035 78.3369 47.2304 78.0557 48.2216 77.6741L74.5822 67.5326C76.085 66.9539 77.3773 65.9335 78.2886 64.6058C79.2 63.2781 79.6877 61.7055 79.6875 60.0951V24.8944C79.6885 24.646 79.6761 24.3978 79.6503 24.1507H79.6556ZM39.8438 78.5135V38.9354L5.34969 24.1507C5.32575 24.3979 5.31334 24.6461 5.3125 24.8944V60.0951C5.31271 61.7061 5.80121 63.2792 6.71357 64.6069C7.62593 65.9347 8.9193 66.9548 10.4231 67.5326L36.7784 77.6741C37.7772 78.0566 38.8025 78.3382 39.8438 78.5135Z" fill="black"/>
</svg>
