<svg width="80" height="80" viewBox="0 0 80 80" fill="none" xmlns="http://www.w3.org/2000/svg">
<path d="M10 3.33337H63.3333C64.2174 3.33337 65.0652 3.68456 65.6904 4.30968C66.3155 4.93481 66.6667 5.78265 66.6667 6.66671V20C66.6667 20.8841 66.3155 21.7319 65.6904 22.3571C65.0652 22.9822 64.2174 23.3334 63.3333 23.3334H10C9.11595 23.3334 8.2681 22.9822 7.64298 22.3571C7.01786 21.7319 6.66667 20.8841 6.66667 20V6.66671C6.66667 5.78265 7.01786 4.93481 7.64298 4.30968C8.2681 3.68456 9.11595 3.33337 10 3.33337ZM10 30H63.3333C64.2174 30 65.0652 30.3512 65.6904 30.9764C66.3155 31.6015 66.6667 32.4493 66.6667 33.3334V35.5667L58.3333 31.8667L36.6667 41.4667V50H10C9.11595 50 8.2681 49.6489 7.64298 49.0237C7.01786 48.3986 6.66667 47.5508 6.66667 46.6667V33.3334C6.66667 32.4493 7.01786 31.6015 7.64298 30.9764C8.2681 30.3512 9.11595 30 10 30ZM10 56.6667H36.6667C36.8667 64.1667 40 71.3334 44.8667 76.6667H10C9.11595 76.6667 8.2681 76.3155 7.64298 75.6904C7.01786 75.0653 6.66667 74.2174 6.66667 73.3334V60C6.66667 59.116 7.01786 58.2681 7.64298 57.643C8.2681 57.0179 9.11595 56.6667 10 56.6667ZM26.6667 16.6667H30V10H26.6667V16.6667ZM26.6667 43.3334H30V36.6667H26.6667V43.3334ZM26.6667 70H30V63.3334H26.6667V70ZM13.3333 10V16.6667H20V10H13.3333ZM13.3333 36.6667V43.3334H20V36.6667H13.3333ZM13.3333 63.3334V70H20V63.3334H13.3333ZM58.3333 40L73.3333 46.6667V56.6667C73.3333 65.9334 66.9333 74.5667 58.3333 76.6667C49.7333 74.5667 43.3333 65.9334 43.3333 56.6667V46.6667L58.3333 40ZM58.3333 46.4667L50 50.2V59.0667C50 64.2 53.5667 69 58.3333 70.2V46.4667Z" fill="black"/>
</svg>
