<svg width="0" height="0" class="hidden">
  <symbol fill="none" xmlns="http://www.w3.org/2000/svg" viewBox="0 0 80 80" id="cib_graphcool">
    <g clip-path="url(#clip0_539_863)">
      <path d="M70.455 26.4325C66.575 24.245 61.68 27.0975 60.8975 27.5925L44.1125 37.11C42.9102 36.1554 41.4108 35.6532 39.8761 35.6912C38.3414 35.7291 36.8687 36.3047 35.715 37.3175C34.5586 38.3269 33.7934 39.7105 33.553 41.2265C33.3127 42.7426 33.6125 44.2949 34.4 45.6125C36.015 48.335 39.3475 49.505 42.3175 48.4C45.2875 47.295 47.03 44.22 46.485 41.1075L63.335 31.5375C64.43 30.8475 66.995 29.805 68.18 30.47C69.04 30.965 69.535 32.58 69.5725 34.975H69.5475V55.9775C69.5475 57.9425 68.505 59.7525 66.8125 60.73L42.7375 74.6375C41.9037 75.1177 40.9584 75.3705 39.9962 75.3705C39.0341 75.3705 38.0888 75.1177 37.255 74.6375L13.18 60.73C12.3437 60.2504 11.6491 59.5582 11.1666 58.7236C10.684 57.889 10.4308 56.9416 10.4325 55.9775V28.1775C10.4325 26.2125 11.475 24.4025 13.18 23.425L34.965 10.86C35.9723 12.0081 37.3488 12.7684 38.857 13.0097C40.3651 13.2509 41.9102 12.9579 43.2253 12.1813C44.5405 11.4048 45.5431 10.1933 46.0602 8.7562C46.5773 7.31908 46.5764 5.7465 46.0575 4.31003C45.5347 2.87135 44.5248 1.66109 43.2029 0.889246C41.8811 0.117407 40.3307 -0.167295 38.8209 0.0845435C37.311 0.336382 35.937 1.10887 34.9372 2.26795C33.9374 3.42704 33.375 4.89957 33.3475 6.43003L10.8725 19.4125C9.32984 20.297 8.04799 21.573 7.15645 23.1116C6.26491 24.6502 5.79527 26.3968 5.79498 28.175V55.9625C5.79498 59.595 7.72248 62.9275 10.86 64.7375L34.9225 78.645C36.4624 79.5344 38.2092 80.0026 39.9875 80.0026C41.7657 80.0026 43.5126 79.5344 45.0525 78.645L69.1275 64.7375C70.664 63.8472 71.9403 62.5696 72.8291 61.0321C73.7178 59.4946 74.1879 57.7509 74.1925 55.975V35.7675H74.205C74.3225 31.0275 73.045 27.89 70.455 26.4325Z" fill="black"></path>
    </g>
    <defs>
      <clipPath id="clip0_539_863">
        <rect width="80" height="80" fill="white"></rect>
      </clipPath>
    </defs>
  </symbol>
  <symbol fill="none" xmlns="http://www.w3.org/2000/svg" viewBox="0 0 70 70" id="eos-icons_software-outlined">
    <path d="M40.8333 53.4187C37.6341 51.8949 34.8839 49.5687 32.8504 46.6666H8.75001V11.6666H61.25V18.27C63.6133 19.9274 65.6009 22.0641 67.0833 24.5408V11.6666C67.0787 10.121 66.4627 8.63992 65.3697 7.54696C64.2767 6.45399 62.7957 5.83793 61.25 5.83331H8.75001C7.20433 5.83793 5.72328 6.45399 4.63032 7.54696C3.53735 8.63992 2.92129 10.121 2.91667 11.6666V46.6666C2.92129 48.2123 3.53735 49.6934 4.63032 50.7863C5.72328 51.8793 7.20433 52.4954 8.75001 52.5H29.1667V58.3333H23.3333V64.1666H46.6667V58.3333H40.8333V53.4187Z" fill="black"></path>
    <path d="M49.5833 17.5C46.1222 17.5 42.7387 18.5264 39.8609 20.4493C36.983 22.3722 34.74 25.1053 33.4154 28.303C32.0909 31.5007 31.7444 35.0194 32.4196 38.4141C33.0948 41.8087 34.7615 44.9269 37.209 47.3744C39.6564 49.8218 42.7746 51.4885 46.1693 52.1637C49.5639 52.839 53.0826 52.4924 56.2803 51.1679C59.478 49.8434 62.2111 47.6003 64.134 44.7225C66.057 41.8446 67.0833 38.4612 67.0833 35C67.0841 32.7017 66.632 30.4257 65.7528 28.3021C64.8736 26.1786 63.5846 24.2491 61.9594 22.6239C60.3342 20.9987 58.4047 19.7097 56.2812 18.8305C54.1577 17.9514 51.8817 17.4992 49.5833 17.5ZM49.5833 46.6667C47.2759 46.6667 45.0203 45.9824 43.1017 44.7005C41.1831 43.4185 39.6878 41.5964 38.8047 39.4646C37.9217 37.3328 37.6907 34.9871 38.1408 32.7239C38.591 30.4608 39.7021 28.382 41.3338 26.7504C42.9654 25.1188 45.0442 24.0077 47.3073 23.5575C49.5704 23.1073 51.9162 23.3384 54.048 24.2214C56.1798 25.1044 58.0019 26.5998 59.2838 28.5183C60.5658 30.4369 61.25 32.6926 61.25 35C61.2461 38.093 60.0157 41.0582 57.8286 43.2453C55.6416 45.4324 52.6763 46.6628 49.5833 46.6667Z" fill="black"></path>
    <path d="M49.5833 37.9166C51.1942 37.9166 52.5 36.6108 52.5 35C52.5 33.3891 51.1942 32.0833 49.5833 32.0833C47.9725 32.0833 46.6667 33.3891 46.6667 35C46.6667 36.6108 47.9725 37.9166 49.5833 37.9166Z" fill="black"></path>
  </symbol>
  <symbol fill="none" xmlns="http://www.w3.org/2000/svg" viewBox="0 0 80 80" id="icon-park_market-analysis">
    <path d="M73.3333 18.3333C73.3333 15.5719 71.0948 13.3333 68.3333 13.3333H11.6667C8.90527 13.3333 6.66669 15.5719 6.66669 18.3333V33.3333H73.3333V18.3333Z" fill="#2F88FF" stroke="black" stroke-width="8.33333" stroke-linecap="round" stroke-linejoin="round"></path>
    <path d="M6.85388 65.0501L27.1465 44.5488L38.112 55.0501L51.5175 43.3333L58.985 50.6133" stroke="black" stroke-width="8.33333" stroke-linecap="round" stroke-linejoin="round"></path>
    <path d="M73.3333 30V61.6667C73.3333 64.4282 71.0948 66.6667 68.3333 66.6667H20" stroke="black" stroke-width="8.33333" stroke-linecap="round" stroke-linejoin="round"></path>
    <path d="M31.853 23.3333H61.853" stroke="white" stroke-width="8.33333" stroke-linecap="round" stroke-linejoin="round"></path>
    <path d="M18.518 23.3333H21.8513" stroke="white" stroke-width="8.33333" stroke-linecap="round" stroke-linejoin="round"></path>
    <path d="M6.66669 30V45" stroke="black" stroke-width="8.33333" stroke-linecap="round" stroke-linejoin="round"></path>
  </symbol>
  <symbol fill="none" xmlns="http://www.w3.org/2000/svg" viewBox="0 0 80 80" id="mdi_server-security">
    <path d="M10 3.33337H63.3333C64.2174 3.33337 65.0652 3.68456 65.6904 4.30968C66.3155 4.93481 66.6667 5.78265 66.6667 6.66671V20C66.6667 20.8841 66.3155 21.7319 65.6904 22.3571C65.0652 22.9822 64.2174 23.3334 63.3333 23.3334H10C9.11595 23.3334 8.2681 22.9822 7.64298 22.3571C7.01786 21.7319 6.66667 20.8841 6.66667 20V6.66671C6.66667 5.78265 7.01786 4.93481 7.64298 4.30968C8.2681 3.68456 9.11595 3.33337 10 3.33337ZM10 30H63.3333C64.2174 30 65.0652 30.3512 65.6904 30.9764C66.3155 31.6015 66.6667 32.4493 66.6667 33.3334V35.5667L58.3333 31.8667L36.6667 41.4667V50H10C9.11595 50 8.2681 49.6489 7.64298 49.0237C7.01786 48.3986 6.66667 47.5508 6.66667 46.6667V33.3334C6.66667 32.4493 7.01786 31.6015 7.64298 30.9764C8.2681 30.3512 9.11595 30 10 30ZM10 56.6667H36.6667C36.8667 64.1667 40 71.3334 44.8667 76.6667H10C9.11595 76.6667 8.2681 76.3155 7.64298 75.6904C7.01786 75.0653 6.66667 74.2174 6.66667 73.3334V60C6.66667 59.116 7.01786 58.2681 7.64298 57.643C8.2681 57.0179 9.11595 56.6667 10 56.6667ZM26.6667 16.6667H30V10H26.6667V16.6667ZM26.6667 43.3334H30V36.6667H26.6667V43.3334ZM26.6667 70H30V63.3334H26.6667V70ZM13.3333 10V16.6667H20V10H13.3333ZM13.3333 36.6667V43.3334H20V36.6667H13.3333ZM13.3333 63.3334V70H20V63.3334H13.3333ZM58.3333 40L73.3333 46.6667V56.6667C73.3333 65.9334 66.9333 74.5667 58.3333 76.6667C49.7333 74.5667 43.3333 65.9334 43.3333 56.6667V46.6667L58.3333 40ZM58.3333 46.4667L50 50.2V59.0667C50 64.2 53.5667 69 58.3333 70.2V46.4667Z" fill="black"></path>
  </symbol>
</svg>